# xmcd
# 
# Track frame offsets:
#     150
#     12970
#     29660
#     44935
#     61240
#     90935
#     107070
#     122262
#     142345
#     163465
#     185222
#     200522
#     238675
#     259307
#     267832
#     280945
#     292755
#     305810
# 
# Disc length: 4566
# 
# Revision: 26
# Processed by: cddbd v1.5.2PL0 Copyright (c) Steve Scherf et al.
# Submitted via: fre:ac v1.0.27
# 
DISCID=1a11d412
DTITLE=Various-Classical - Best Classics 100 [CD1]
DYEAR=2005
DGENRE=Classical
TTITLE0=Händel - Die Ankunft der Königin von Saba
TTITLE1=Vivaldi - Die vier Jahreszeiten - Der Frühling: I. Allegro
TTITLE2=J.S. Bach - Toccata d-moll BWV 565
TTITLE3=Mozart - Hornkonzert Nr. 4 Es-dur KV 495 - III. Rondo
TTITLE4=Beethoven - Sinfonie Nr. 5 c-moll op. 67 - I. Allegro con brio
TTITLE5=Tschaikowsky - "1982" Ouvertüre
TTITLE6=Beethoven - Sinfonie Nr. 9 d-moll op. 125 - Ode an die Freude
TTITLE7=Grieg - Klavierkonzert a-moll op. 16 - I. Allegro molto moderato
TTITLE8=Sibelius - Karelia Suite, op. 11 Nr. 3 - Alla marcia
TTITLE9=Holst - The Planets, op. 32 - Jupiter, the Bringer of Jollity
TTITLE10=Tschaikowsky - Klavierkonzert Nr. 1 b-moll op. 23 - I. Allegro non troppo e molto maestroso
TTITLE11=Sibelius - Finlandia
TTITLE12=Verdi - Aida - Gloria all'Egitto
TTITLE13=Prokofieff - Romeo und Julia - Montagues and Capulets
TTITLE14=J. Strauss I - Radetzky-Marsch
TTITLE15=Elgar - Pomp and Circumstance - Marsch Nr. 1
TTITLE16=Rachmaninoff - Klavierkonzert Nr. 3 d-moll - I. Allegro ma non tanto
TTITLE17=Saint-Saens - Sinfonie Nr. 3 c-moll op. 78 "Orgel-Sinfonie" - Maestoso - Allegro
EXTD=
EXTT0=
EXTT1=
EXTT2=
EXTT3=
EXTT4=
EXTT5=
EXTT6=
EXTT7=
EXTT8=
EXTT9=
EXTT10=
EXTT11=
EXTT12=
EXTT13=
EXTT14=
EXTT15=
EXTT16=
EXTT17=
PLAYORDER=
